<?xml version="1.0" encoding="iso-8859-1"?>
<!-- Generator: Adobe Illustrator 19.0.0, SVG Export Plug-In . SVG Version: 6.00 Build 0)  -->
<svg version="1.1" id="Layer_1" xmlns="http://www.w3.org/2000/svg" xmlns:xlink="http://www.w3.org/1999/xlink" x="0px" y="0px"
	 viewBox="0 0 490 490" style="enable-background:new 0 0 490 490;" xml:space="preserve">
<g>
	<path style="fill:#FFFFFF;" d="M472.5,184.262H287.866l-36.505,47.35c-1.52,1.972-3.87,3.127-6.361,3.127
		c-2.49,0-4.841-1.155-6.361-3.127l-36.504-47.35H17.5c-5.5,0-10,4.5-10,10v253.413c0,5.5,4.5,10,10,10h455c5.5,0,10-4.5,10-10
		V194.262C482.5,188.762,478,184.262,472.5,184.262z"/>
	<path style="fill:#76FFD9;" d="M454.5,209.262H268.592l-17.231,22.35c-1.52,1.972-3.87,3.127-6.361,3.127
		c-2.49,0-4.841-1.155-6.361-3.127l-17.23-22.35H35.5c-1.65,0-3,1.35-3,3v217.413c0,1.65,1.35,3,3,3h419c1.65,0,3-1.35,3-3V212.262
		C457.5,210.612,456.15,209.262,454.5,209.262z"/>
	<path style="fill:#5DE0BF;" d="M454.5,209.262H331v95.945c0,1.65,1.35,3,3,3h123.5v-95.945
		C457.5,210.612,456.15,209.262,454.5,209.262z"/>
	<path style="fill:#76FFD9;" d="M191.478,333.729H32.5v95.945c0,1.65,1.35,3,3,3h158.978v-95.945
		C194.478,335.08,193.128,333.729,191.478,333.729z"/>
	<path style="fill:#76FFD9;" d="M220,336.729v95.945h234.5c1.65,0,3-1.35,3-3v-95.945H223C221.35,333.729,220,335.08,220,336.729z"
		/>
	<path style="fill:#FFC843;" d="M245,234.738c-2.49,0-4.841-1.155-6.361-3.127l-54.063-70.126
		c-11.796-14.117-18.291-32.025-18.291-50.443c0-43.405,35.311-78.717,78.716-78.717c43.405,0,78.717,35.312,78.717,78.717
		c0,18.418-6.495,36.326-18.291,50.443l-54.064,70.126C249.841,233.583,247.491,234.738,245,234.738z"/>
	<path style="fill:#FFB400;" d="M208.291,161.485C196.495,147.368,190,129.46,190,111.042c0-39.373,29.056-72.083,66.85-77.822
		c-3.866-0.587-7.823-0.895-11.85-0.895c-43.404,0-78.716,35.312-78.716,78.717c0,18.418,6.495,36.326,18.291,50.443l54.063,70.126
		c1.521,1.972,3.871,3.127,6.361,3.127c2.491,0,4.841-1.155,6.361-3.127l5.497-7.129L208.291,161.485z"/>
	<circle style="fill:#FFFFFF;" cx="245" cy="113.33" r="31.578"/>
	<path style="fill:#5DE0BF;" d="M68.5,212.262c0-1.65,1.35-3,3-3h-36c-1.65,0-3,1.35-3,3v95.945h36V212.262z"/>
	<path style="fill:#5DE0BF;" d="M32.5,429.675c0,1.65,1.35,3,3,3h36c-1.65,0-3-1.35-3-3v-95.945h-36V429.675z"/>
	<path style="fill:#FFC843;" d="M334,308.207c-1.65,0-3-1.35-3-3v-95.945h-25.521v95.945c0,1.65-1.35,3-3,3H170.522
		c-1.65,0-3-1.35-3-3v-95.945H142v95.945c0,1.65-1.35,3-3,3H68.5v25.523h122.979c1.65,0,3,1.35,3,3v95.945H220v-95.945
		c0-1.65,1.35-3,3-3h234.5v-25.523H334z"/>
	<rect x="32.5" y="308.207" style="fill:#FFB400;" width="36" height="25.523"/>
	<path style="fill:#434C54;" d="M161.224,383.999h12.734c4.142,0,7.5-3.358,7.5-7.5c0-4.142-3.358-7.5-7.5-7.5h-12.734
		c-4.142,0-7.5,3.358-7.5,7.5C153.724,380.641,157.082,383.999,161.224,383.999z"/>
	<path style="fill:#434C54;" d="M384.545,383.782c0.526,0,1.061-0.056,1.596-0.171c7.621-1.652,13.196-8.241,13.557-16.023
		c0.192-4.138-3.006-7.647-7.144-7.84c-4.143-0.191-7.648,3.007-7.84,7.145c-0.045,0.983-0.782,1.849-1.75,2.058
		c-4.048,0.877-6.619,4.871-5.742,8.919C377.984,381.382,381.091,383.782,384.545,383.782z"/>
	<path style="fill:#434C54;" d="M310.121,368.999c-4.142,0-7.5,3.358-7.5,7.5c0,4.142,3.358,7.5,7.5,7.5h12.734
		c4.142,0,7.5-3.358,7.5-7.5c0-4.142-3.358-7.5-7.5-7.5H310.121z"/>
	<path style="fill:#434C54;" d="M399.706,293.088c0-4.142-3.358-7.5-7.5-7.5s-7.5,3.358-7.5,7.5v12.734c0,4.142,3.358,7.5,7.5,7.5
		s7.5-3.358,7.5-7.5V293.088z"/>
	<path style="fill:#434C54;" d="M399.706,330.132c0-4.142-3.358-7.5-7.5-7.5s-7.5,3.358-7.5,7.5v12.734c0,4.142,3.358,7.5,7.5,7.5
		s7.5-3.358,7.5-7.5V330.132z"/>
	<path style="fill:#434C54;" d="M272.896,368.999c-4.142,0-7.5,3.358-7.5,7.5c0,4.142,3.358,7.5,7.5,7.5h12.735
		c4.142,0,7.5-3.358,7.5-7.5c0-4.142-3.358-7.5-7.5-7.5H272.896z"/>
	<path style="fill:#434C54;" d="M235.672,368.999c-4.142,0-7.5,3.358-7.5,7.5c0,4.142,3.358,7.5,7.5,7.5h12.735
		c4.142,0,7.5-3.358,7.5-7.5c0-4.142-3.358-7.5-7.5-7.5H235.672z"/>
	<path style="fill:#434C54;" d="M124,368.999c-4.142,0-7.5,3.358-7.5,7.5c0,4.142,3.358,7.5,7.5,7.5h12.735
		c4.142,0,7.5-3.358,7.5-7.5c0-4.142-3.358-7.5-7.5-7.5H124z"/>
	<path style="fill:#434C54;" d="M199.765,368.999c-4.142,0-7.5,3.358-7.5,7.5c0,4.142,3.358,7.5,7.5,7.5H212.5
		c4.142,0,7.5-3.358,7.5-7.5c0-4.142-3.358-7.5-7.5-7.5H199.765z"/>
	<path style="fill:#434C54;" d="M360.08,368.999h-12.734c-4.142,0-7.5,3.358-7.5,7.5c0,4.142,3.358,7.5,7.5,7.5h12.734
		c4.142,0,7.5-3.358,7.5-7.5C367.58,372.357,364.222,368.999,360.08,368.999z"/>
	<path style="fill:#434C54;" d="M472.5,176.762H303.118l8.159-10.583c12.859-15.445,19.94-35.02,19.94-55.137
		c0-4.142-3.358-7.5-7.5-7.5s-7.5,3.358-7.5,7.5c0,16.658-5.877,32.865-16.546,45.634c-0.063,0.076-0.125,0.152-0.185,0.23
		l-54.063,70.125c-0.2,0.259-0.645,0.258-0.844,0.001l-54.064-70.126c-0.06-0.078-0.121-0.154-0.185-0.23
		c-10.67-12.77-16.546-28.976-16.546-45.634c0-39.269,31.947-71.217,71.216-71.217c29.748,0,56.631,18.793,66.893,46.764
		c1.427,3.889,5.734,5.884,9.625,4.458c3.889-1.427,5.884-5.736,4.458-9.625C313.555,47.57,281.014,24.825,245,24.825
		c-47.54,0-86.216,38.677-86.216,86.217c0,20.117,7.08,39.692,19.939,55.137l8.159,10.583H17.5c-9.649,0-17.5,7.851-17.5,17.5
		v253.413c0,9.649,7.851,17.5,17.5,17.5H98c4.142,0,7.5-3.358,7.5-7.5s-3.358-7.5-7.5-7.5H17.5c-1.355,0-2.5-1.145-2.5-2.5V194.262
		c0-1.355,1.145-2.5,2.5-2.5h180.947l34.253,44.43c2.92,3.787,7.518,6.047,12.3,6.047c4.782,0,9.38-2.26,12.301-6.048l34.252-44.429
		H472.5c1.355,0,2.5,1.145,2.5,2.5v253.413c0,1.355-1.145,2.5-2.5,2.5H127c-4.142,0-7.5,3.358-7.5,7.5s3.358,7.5,7.5,7.5h345.5
		c9.649,0,17.5-7.851,17.5-17.5V194.262C490,184.612,482.149,176.762,472.5,176.762z"/>
	<circle style="fill:#E86436;" cx="101" cy="377.302" r="20.5"/>
	<circle style="fill:#FFFFFF;" cx="391.893" cy="260.695" r="24.893"/>
	<circle style="fill:#434C54;" cx="391.893" cy="260.677" r="7.5"/>
</g>
<g>
</g>
<g>
</g>
<g>
</g>
<g>
</g>
<g>
</g>
<g>
</g>
<g>
</g>
<g>
</g>
<g>
</g>
<g>
</g>
<g>
</g>
<g>
</g>
<g>
</g>
<g>
</g>
<g>
</g>
</svg>
